/* XPM */
static char *enemy_tile32[] = {
/* columns rows colors chars-per-pixel */
"32 32 167 2",
"   c #141412",
".  c #242A36",
"X  c #337504",
"o  c #347804",
"O  c #397606",
"+  c #3A7409",
"@  c #3B535E",
"#  c #47280D",
"$  c #43740D",
"%  c #49730F",
"&  c #467111",
"*  c #4B7215",
"=  c #516F17",
"-  c #556F1A",
";  c #5A6D1D",
":  c #517417",
">  c #557219",
",  c #5A711C",
"<  c #576F23",
"1  c #5D6F21",
"2  c #61711E",
"3  c #626C21",
"4  c #616D2E",
"5  c #6C6C26",
"6  c #6A6D2A",
"7  c #646130",
"8  c #6C6330",
"9  c #696238",
"0  c #697124",
"q  c #6F7328",
"w  c #75642B",
"e  c #706D27",
"r  c #726C29",
"t  c #79622C",
"y  c #7C692D",
"u  c #796930",
"i  c #74702A",
"p  c #7D702F",
"a  c #6C785E",
"s  c #7E635E",
"d  c #737355",
"f  c #7C6362",
"g  c #757263",
"h  c #7C7572",
"j  c #7D717C",
"k  c #63769B",
"l  c #6A7695",
"z  c #757780",
"x  c #72748B",
"c  c #7E7685",
"v  c #7D798D",
"b  c #707A91",
"n  c #7C7C93",
"m  c #607AA4",
"M  c #3E8DCE",
"N  c #3E8FD0",
"B  c #3E91D0",
"V  c #5C8EA5",
"C  c #5B85BB",
"Z  c #6A83AD",
"A  c #6385B5",
"S  c #6788B6",
"D  c #6489B9",
"F  c #7383A7",
"G  c #7A86A4",
"H  c #7F88A6",
"J  c #7F8CAC",
"K  c #738AB4",
"L  c #738FB8",
"P  c #7B8DB1",
"I  c #7790B7",
"U  c #7991B6",
"Y  c #4286CA",
"T  c #438BCC",
"R  c #4B87C6",
"E  c #4B88C6",
"W  c #4B8BCB",
"Q  c #4393D1",
"!  c #4D96D2",
"~  c #5087C3",
"^  c #5088C3",
"/  c #548ECB",
"(  c #598BC4",
")  c #598DC9",
"_  c #5591CD",
"`  c #5C92CC",
"'  c #5F98CF",
"]  c #5094D1",
"[  c #5D96D0",
"{  c #618CC0",
"}  c #6590C2",
"|  c #6493CA",
" . c #6D94C2",
".. c #6997CE",
"X. c #689ACF",
"o. c #669AD1",
"O. c #6D9BD0",
"+. c #7497C4",
"@. c #779ECE",
"#. c #709FD1",
"$. c #855E31",
"%. c #8A5F36",
"&. c #866333",
"*. c #816B31",
"=. c #8B6535",
"-. c #8C633A",
";. c #8A6C34",
":. c #95653A",
">. c #936A3A",
",. c #98673B",
"<. c #9B6A3C",
"1. c #B56C30",
"2. c #825F51",
"3. c #89634F",
"4. c #836F58",
"5. c #896553",
"6. c #8A6C57",
"7. c #8B695C",
"8. c #946745",
"9. c #926842",
"0. c #94694C",
"q. c #9B6B43",
"w. c #9B6D4B",
"e. c #906750",
"r. c #966D53",
"t. c #946E5A",
"y. c #9E704E",
"u. c #94715E",
"i. c #997156",
"p. c #98705D",
"a. c #876B67",
"s. c #8C6D63",
"d. c #896F6B",
"f. c #816E73",
"g. c #847163",
"h. c #8D726E",
"j. c #837379",
"k. c #8D7573",
"l. c #8A7579",
"z. c #91746D",
"x. c #9C7764",
"c. c #9A7768",
"v. c #9D7B6C",
"b. c #927571",
"n. c #957972",
"m. c #937D7C",
"M. c #9A7D74",
"N. c #807684",
"B. c #827885",
"V. c #827D90",
"C. c #9C817B",
"Z. c #87818C",
"A. c #858296",
"S. c #8D8591",
"D. c #8D8896",
"F. c #8D8B9C",
"G. c #938287",
"H. c #8488A2",
"J. c #828FAE",
"K. c #818FB0",
"L. c #8E95AF",
"P. c #8097B9",
"I. c #879CBF",
"U. c #9392A7",
"Y. c #9197B1",
"T. c #849BC1",
"R. c #8AC6E0",
/* pixels */
"B B B B B B B W V.z.k.C T E E E E E T T E E E M B B B B B B B B ",
"B B M B B B T F q.<.q.s.m h a g x k.n b g g.j S Q B B Q Q B B B ",
"B B B B B B T H.<.>.;.w 9 1 O > 5 ;.9.4 & 2 >.p.S M B ! ] B B B ",
"B B B B B B T L s $.. . . . . . .       o 0 <.q.J T M B B B B Q ",
"B B B B T B M / V.. . Z R.R.R.@ V @ .     0 <.0.Z Y B B B B Q ] ",
"B B N N B N Y K . . R.R.R.R.R.@ V @ . .     :.7.C M M B B B Q B ",
"B T R R T N W . . V R.R.R.R.R.@ V @ . . .     c...M B M M M B B ",
"E n z.k.Z Y | . V V V R.. . . . . .           7.D T T C E E B B ",
"Z w.<.<.7.k h . V V . . @ R.R.R.R.R.R.V R.V   8 u.n z d 4.j.Z T ",
"U q.<.;.t 7 1 . @ . . @ V R.R.R.R.R.R.V R.V   * ;.-.< $ 0 <.x.D ",
"+.s &.2 + + X . @ . V V V R.R.R.R.R.R.V R.V   o > q + o q <.w.I ",
"/ F.-.; X X X . @ 1.1.V @                     o o + X + i <.5.A ",
"..n.<.>.5 + X . @ 1.1..   .   .   .   .       X o X o = *.>.h.E ",
"` B.:.=.; + X .   . . .   @ . @ . @ . @     o X X X X + y <.n.` ",
"E A.>.t ; O X X     . @ @ R.R.R.R.R.R.R.R.  o o X X X o : *.k.' ",
"D t.y & X X X X X     . @ @ V V V V V V @   X X X X X o 5 -.v ' ",
"P.8.*.$ X X X X @ R.R.V .                     o o o o O 1 7.+.Y ",
" .f =.; o X X   R.R.R.R.@ @ @ . .   . . @ . .   o X o o 5 q.v R ",
"W V.,.; X X X   R.R.R.R.@ @ @ @ V V V @ @ . .   o o X - :.<.h.R ",
") z.>.- X X X   V R.R.@   V V R.R.R.R.R.V . .   X X X - &.:.s.C ",
") j %.2 o O O X           @ @ @ V V V @ @     o X O X + r <.q.B.",
"` z.<.y 5 0 > O &     . . @ @ @ V V V @ @   + , * 1 * & 3 ,.<.j ",
"X.M.<.,.%.>.*.r *.t   . . @ @ @ V V V @ .   3 =.y -.>.=.=.,.3.l ",
"W P n.h.G U.Z.0.<.y     # # # 1.1.1.1.1.  > =.0.A.F.U.G.v.b.U ) ",
"T W O...W W / J.r.y     . . . . . # . #   , :.w.P W W | O.` W Y ",
"B T M T M M Y @.x.r   @ @ @ . @ @ 1.@ 1..   q.q.P W M N T Y M N ",
"B B B B N N M { d.  @ @ @ . . @ @ 1.@ 1..   ,.0.Z Y T B B N M N ",
"B B B B B N Y / c   . .       @ @ @ @ @       <.l.Y B N N N B N ",
"B B B B B B N X.  1.1.1.1.    @ @ @ @ @ 1.1.  <.f.M B B B B B B ",
"B B N B B B B   # # # #             # # #   ,.5.l T B B B N B B ",
"B B B B B B N W P m.j.G Y.D.i.y.w.h.H.L.D.C.m.U ) T B B B B B B ",
"B B B B B B B M W o.[ W W ` T.T.U { T W _ o.` Y T B B N N B B N "
};
