/* XPM */
static char *exit_32[] = {
/* columns rows colors chars-per-pixel */
"32 32 235 2",
"   c #000000",
".  c #080706",
"X  c #0A0907",
"o  c #0D0C09",
"O  c #100E0C",
"+  c #12110E",
"@  c #151310",
"#  c #181613",
"$  c #1B1A16",
"%  c #1E1C18",
"&  c #221C07",
"*  c #251C09",
"=  c #201D1A",
"-  c #24211D",
";  c #3B2916",
":  c #2A2722",
">  c #2D2925",
",  c #312D28",
"<  c #33322A",
"1  c #39342F",
"2  c #393A2E",
"3  c #393530",
"4  c #3E3A34",
"5  c #363B45",
"6  c #333C48",
"7  c #393E46",
"8  c #285D07",
"9  c #2A5D09",
"0  c #31491E",
"q  c #395A10",
"w  c #3D4622",
"e  c #3F4033",
"r  c #3A6D09",
"t  c #336019",
"y  c #337504",
"u  c #347804",
"i  c #397607",
"p  c #397308",
"a  c #3E4149",
"s  c #33455C",
"d  c #44391C",
"f  c #423D29",
"g  c #413C34",
"h  c #423D39",
"j  c #4C3F32",
"k  c #533C28",
"l  c #445B16",
"z  c #444426",
"x  c #41442E",
"c  c #424336",
"v  c #46423A",
"b  c #4A453E",
"n  c #48483B",
"m  c #4C5524",
"M  c #534329",
"N  c #58483E",
"B  c #5F5226",
"V  c #585F27",
"C  c #42740D",
"Z  c #48720F",
"A  c #467111",
"S  c #4E7117",
"D  c #516F17",
"F  c #556F1A",
"G  c #5A6D1D",
"H  c #517417",
"J  c #5B701D",
"K  c #576F23",
"L  c #6C4B2C",
"P  c #605D2E",
"I  c #6E522A",
"U  c #7A542D",
"Y  c #7A5A2E",
"T  c #765031",
"R  c #7C5632",
"E  c #61711E",
"W  c #636C21",
"Q  c #6D6C26",
"!  c #697124",
"~  c #6F7328",
"^  c #75652A",
"/  c #726B29",
"(  c #7B682D",
")  c #74702A",
"_  c #7D702F",
"`  c #4C4740",
"'  c #4E4841",
"]  c #4E4E54",
"[  c #514B44",
"{  c #564F48",
"}  c #575048",
"|  c #59524A",
" . c #5F584F",
".. c #66575B",
"X. c #635C53",
"o. c #725445",
"O. c #745849",
"+. c #6C5B60",
"@. c #686057",
"#. c #6B645A",
"$. c #6F685E",
"%. c #6B775D",
"&. c #70685E",
"*. c #7C6054",
"=. c #7E635E",
"-. c #737355",
";. c #6A6775",
":. c #736B61",
">. c #7C6362",
",. c #796B72",
"<. c #737562",
"1. c #797572",
"2. c #7D717C",
"3. c #3578AF",
"4. c #54688A",
"5. c #5F7195",
"6. c #467DBA",
"7. c #487CB7",
"8. c #4D7DB8",
"9. c #5074A0",
"0. c #5F79A3",
"q. c #656E8A",
"w. c #63708B",
"e. c #757780",
"r. c #71738A",
"t. c #7D798D",
"y. c #707A91",
"u. c #7C7C93",
"i. c #607DA8",
"p. c #3E86BF",
"a. c #3C86C6",
"s. c #3E8DCD",
"d. c #3E8FD0",
"f. c #3D90CE",
"g. c #3E91D0",
"h. c #4482BD",
"j. c #4E84BD",
"k. c #5F82AC",
"l. c #5080B6",
"z. c #5383BB",
"x. c #5B8ABD",
"c. c #6581AD",
"v. c #6B82AB",
"b. c #6385B4",
"n. c #6788B6",
"m. c #7384A7",
"M. c #7A86A4",
"N. c #7F88A6",
"B. c #7D8CAD",
"V. c #738FB8",
"C. c #7A8DB2",
"Z. c #7790B7",
"A. c #7B92B7",
"S. c #4286C1",
"D. c #4187CA",
"F. c #438BCC",
"G. c #4A86C6",
"H. c #4A88C6",
"J. c #4B8ACB",
"K. c #4190CF",
"L. c #4393D1",
"P. c #4D96D2",
"I. c #5087C3",
"U. c #5088C3",
"Y. c #538CCA",
"T. c #598AC4",
"R. c #5B8FC9",
"E. c #5591CD",
"W. c #5B92CD",
"Q. c #5094D1",
"!. c #6590C2",
"~. c #6393CB",
"^. c #6C92C0",
"/. c #6895CC",
"(. c #6A99CE",
"). c #669AD1",
"_. c #6D9DD1",
"`. c #7497C4",
"'. c #709FD1",
"]. c #845B31",
"[. c #8A5F36",
"{. c #866533",
"}. c #826C31",
"|. c #8B6535",
" X c #8C633A",
".X c #8A6C34",
"XX c #94663A",
"oX c #936A3A",
"OX c #98673B",
"+X c #9B6B3C",
"@X c #825F51",
"#X c #89634F",
"$X c #81655A",
"%X c #836F58",
"&X c #8A6C57",
"*X c #8B685B",
"=X c #946745",
"-X c #976941",
";X c #956848",
":X c #9B6B43",
">X c #9B6D4B",
",X c #906750",
"<X c #956E54",
"1X c #946E5A",
"2X c #98705D",
"3X c #866A66",
"4X c #896F6A",
"5X c #847163",
"6X c #8D726E",
"7X c #837379",
"8X c #8D7472",
"9X c #8C7778",
"0X c #91746D",
"qX c #9B7C64",
"wX c #9D7B6C",
"eX c #927571",
"rX c #937971",
"tX c #937D7C",
"yX c #9A7D74",
"uX c #827A86",
"iX c #827D90",
"pX c #9C817B",
"aX c #898585",
"sX c #848297",
"dX c #888593",
"fX c #8E8896",
"gX c #8D8B9C",
"hX c #938287",
"jX c #8087A4",
"kX c #8789A0",
"lX c #8D8DA1",
"zX c #8E94AE",
"xX c #879CBF",
"cX c #9493A7",
"vX c #849BC1",
/* pixels */
"g.g.g.g.g.g.g.J.u.0X9Xb.F.H.G.G.D.G.D.J.H.H.D.s.f.g.g.g.g.g.g.g.",
"g.g.s.g.g.g.F.m.>X+X:X3X0.1.%.<.r.eXu.y.<.5X7Xn.K.g.g.L.L.g.g.L.",
"g.g.g.g.g.d.F.jXoX+X{.d f w 0 w z M k m Z E oX2Xn.L.g.P.P.g.g.g.",
"K.g.g.g.g.L.F.V.#XY e j #.$.X.X.X.X.b [ t ! +X:XjXF.g.g.g.g.g.L.",
"F.g.g.g.s.g.s.R.uXv } b X.X.[ [ [ [ v $.X.V OX=Xv.F.g.g.g.g.L.Q.",
"g.g.d.d.g.d.J.i.N } } > @ @ + + + + $  .&.| T *XT.D.d.g.g.g.g.L.",
"L.F.G.G.F.s.6.] | { , O               - |  .[ *.~.s.g.F.d.g.g.g.",
"H.u.0X8Xv.D.s [ [ , o                 . - b { 4 5.D.H.I.G.H.s.g.",
"v.>X+X+X*X5.3 ` 1 .                       % ` v O.u.2.-.%X7Xv.j.",
"B.:X+X.X^ V 4 | 4                         - } [ I #XK C ! oX2Xc.",
"^.=.{.G i r 4 | 4 .                       - | [ q ~ p i ~ +X>Xm.",
"Y.gXXXG y y e X.v                         - { [ 9 i y i ~ +X,Xc.",
"/.yX:XXXQ r < n ,                         $ ` b 8 u y S }.OX6X8.",
"W.uXXX|.G y 2 } 4 .                       : $.X.9 y u C ( +XrXx.",
"G.sXoX^ G r 2 | 4 .                       : $.@.9 y u u S .X8Xx.",
"b.1X( A y y 2 } 4                         : $.@.9 y y u W |.t.x.",
"A.=X}.C y y < b <                         % | [ 9 y u y W &X`.z.",
"V.=.|.W y y n $.`                         - X. .8 u y i Q =Xt.8.",
"F.dXoXK y y n &.'                         - | [ 8 u i F |.+X6X7.",
"T.0X|.D y y n &.' .                       - { { 8 y y F {.-XrXc.",
"H.2.[.W u p c @.v                         % [ b 8 y y i / :XqXaX",
"R.eX+X( Q W h X.h                         % ' b q W H A ! OX+X,.",
"(.yX+X+X X X4  .g .                       - | [ B XXOX{.|.OX#Xq.",
"H.C.0X6Xu.gXh | 4                         - { [ ;.gXcXhXwXrXA.z.",
"s.J._.).J.G.7 | 3 .     + . @ @ @ @ .     = } { 5.H.J.~._.W.J.6.",
"g.F.D.a.F.a.5 [ <   . o O O + + + o o .   $ [ b q.D.s.s.F.D.D.S.",
"g.g.d.g.g.a.a X.h . . = % % % % % # $ +   : &.X.4.D.F.g.s.L.d.S.",
"g.g.g.g.g.s.5 | 4 o O # + + @ @ @ @ @ + O > &.X.+.D.L.f.s.g.g.h.",
"g.g.g.g.g.f.6 n 3 O = = # @ $ $ $ $ $ % # - X. ...D.g.g.g.g.g.S.",
"g.g.g.g.g.f.3.k.$X].U T ; & * * * * L R I U R o.q.F.g.g.g.d.g.p.",
"L.g.g.g.g.g.g.F.C.tX7XM.zXdX<X>X;X6XjXzXfXpXtXZ.W.f.g.g.g.g.g.T.",
"L.g.g.g.g.g.g.F.F.).W.J.J.E.vXxXA.!.F.J.E._.W.D.D.d.g.f.g.g.f.j."
};
