/* XPM */
static char * path_tile32_3_xpm[] = {
"32 32 265 2",
"  	c #3E91D0",
". 	c #4B8BCB",
"+ 	c #7D798D",
"@ 	c #91746D",
"# 	c #8A7579",
"$ 	c #6385B5",
"% 	c #438BCC",
"& 	c #4B87C6",
"* 	c #4286CA",
"= 	c #4B88C6",
"- 	c #3E8DCE",
"; 	c #7383A7",
"> 	c #9B6D4B",
", 	c #9B6B43",
"' 	c #8C6D63",
") 	c #607AA4",
"! 	c #7C7572",
"~ 	c #6C785E",
"{ 	c #757263",
"] 	c #72748B",
"^ 	c #927571",
"/ 	c #7C7C93",
"( 	c #707A91",
"_ 	c #847163",
": 	c #7D717C",
"< 	c #6A83AD",
"[ 	c #4393D1",
"} 	c #3E8FD0",
"| 	c #8389A2",
"1 	c #98673B",
"2 	c #9B6A3C",
"3 	c #8A6B34",
"4 	c #75642B",
"5 	c #696238",
"6 	c #5D6F21",
"7 	c #3B7409",
"8 	c #557119",
"9 	c #6A6D2A",
"0 	c #936941",
"a 	c #616D2E",
"b 	c #49730F",
"c 	c #61711E",
"d 	c #936A3A",
"e 	c #99715D",
"f 	c #6788B6",
"g 	c #4D96D2",
"h 	c #5591CD",
"i 	c #738FB8",
"j 	c #825F51",
"k 	c #856333",
"l 	c #5B711C",
"m 	c #327504",
"n 	c #397606",
"o 	c #7C692D",
"p 	c #337803",
"q 	c #697124",
"r 	c #7F8CAC",
"s 	c #548ECB",
"t 	c #8D8591",
"u 	c #506E17",
"v 	c #6B6C26",
"w 	c #E60DE3",
"x 	c #E60CE3",
"y 	c #738AB4",
"z 	c #916B37",
"A 	c #5A6D1C",
"B 	c #42740E",
"C 	c #C213BF",
"D 	c #34211F",
"E 	c #CC14C8",
"F 	c #8C93AD",
"G 	c #946745",
"H 	c #A31EA1",
"I 	c #BC9F94",
"J 	c #E5D9A7",
"K 	c #E7D9A8",
"L 	c #C1923D",
"M 	c #9E6268",
"N 	c #A71BA3",
"O 	c #8D7573",
"P 	c #5C92CC",
"Q 	c #8A5F36",
"R 	c #6E6327",
"S 	c #7F237C",
"T 	c #BAB087",
"U 	c #FEEFB9",
"V 	c #EFD598",
"W 	c #C9A86B",
"X 	c #AC765E",
"Y 	c #AC18A8",
"Z 	c #8B695C",
"` 	c #63769B",
" .	c #6F7545",
"..	c #726C29",
"+.	c #476D12",
"@.	c #A320A0",
"#.	c #BCA094",
"$.	c #EBDEAC",
"%.	c #EBCE90",
"&.	c #33231D",
"*.	c #E30CDF",
"=.	c #837379",
"-.	c #7B8DB1",
";.	c #646130",
">.	c #80785C",
",.	c #2A281D",
"'.	c #E610E3",
").	c #6489B9",
"!.	c #7497C4",
"~.	c #7E635E",
"{.	c #821E7C",
"].	c #BBB08A",
"^.	c #F4DFA5",
"/.	c #D6A345",
"(.	c #C5792D",
"_.	c #D2973D",
":.	c #C3953F",
"<.	c #2C271E",
"[.	c #9E704E",
"}.	c #7991B6",
"|.	c #8D8B9C",
"1.	c #8C623A",
"2.	c #AB18A7",
"3.	c #AB18A6",
"4.	c #A04372",
"5.	c #9F5626",
"6.	c #A15725",
"7.	c #C7AF9A",
"8.	c #D9C491",
"9.	c #D5B476",
"0.	c #926D31",
"a.	c #865024",
"b.	c #8D642D",
"c.	c #9E6369",
"d.	c #CC14C9",
"e.	c #6F7328",
"f.	c #906750",
"g.	c #6997CE",
"h.	c #9A7D74",
"i.	c #E10EDE",
"j.	c #884A23",
"k.	c #8B4E24",
"l.	c #965A26",
"m.	c #B76A29",
"n.	c #CA752B",
"o.	c #C66C2A",
"p.	c #8F4D23",
"q.	c #C2B188",
"r.	c #BDA778",
"s.	c #A8735C",
"t.	c #AC1AA7",
"u.	c #C016BC",
"v.	c #4A7214",
"w.	c #816B31",
"x.	c #8D726E",
"y.	c #807684",
"z.	c #93653A",
"A.	c #8B6534",
"B.	c #2D241E",
"C.	c #C96E2A",
"D.	c #D9832D",
"E.	c #D57F2D",
"F.	c #C46B29",
"G.	c #69391D",
"H.	c #2B271E",
"I.	c #957972",
"J.	c #858296",
"K.	c #A05725",
"L.	c #CE762B",
"M.	c #D9832E",
"N.	c #8A451E",
"O.	c #517217",
"P.	c #5F98CF",
"Q.	c #946E5A",
"R.	c #7A632D",
"S.	c #467111",
"T.	c #871D80",
"U.	c #B86528",
"V.	c #CF782C",
"W.	c #C76F2A",
"X.	c #C46C2A",
"Y.	c #6C391D",
"Z.	c #636C21",
"`.	c #8097B9",
" +	c #D17A2C",
".+	c #DD8830",
"++	c #E39034",
"@+	c #C9712A",
"#+	c #783E1D",
"$+	c #91307B",
"%+	c #BF19BD",
"&+	c #8A6C57",
"*+	c #6D94C2",
"=+	c #7C6362",
"-+	c #E213DD",
";+	c #593320",
">+	c #E28E33",
",+	c #F2A13C",
"'+	c #C46B2A",
")+	c #4A2F1D",
"!+	c #B91CB5",
"~+	c #827D90",
"{+	c #B41BB1",
"]+	c #653721",
"^+	c #D57E2C",
"/+	c #BA6527",
"(+	c #88451E",
"_+	c #556F1A",
":+	c #598DC9",
"<+	c #5B85BB",
"[+	c #5F3421",
"}+	c #B66327",
"|+	c #D37E2C",
"1+	c #D8822D",
"2+	c #A55823",
"3+	c #63371D",
"4+	c #B920B2",
"5+	c #E40EE0",
"6+	c #827885",
"7+	c #C617C2",
"8+	c #832A71",
"9+	c #8D4A22",
"0+	c #A85924",
"a+	c #D7812D",
"b+	c #9F5422",
"c+	c #689ACF",
"d+	c #9C817B",
"e+	c #AF5E25",
"f+	c #89461E",
"g+	c #796930",
"h+	c #89634F",
"i+	c #6A7695",
"j+	c #7A86A4",
"k+	c #7D411E",
"l+	c #94694C",
"m+	c #9392A7",
"n+	c #938287",
"o+	c #9C7A6C",
"p+	c #CB17C8",
"q+	c #64351E",
"r+	c #813265",
"s+	c #CB17C9",
"t+	c #6493CA",
"u+	c #6D9BD0",
"v+	c #A81AA4",
"w+	c #9C2592",
"x+	c #703B1E",
"y+	c #A81BA3",
"z+	c #BD18B9",
"A+	c #6590C2",
"B+	c #30241F",
"C+	c #2D261F",
"D+	c #342320",
"E+	c #7E7685",
"F+	c #9A7768",
"G+	c #816E73",
"H+	c #759DCE",
"I+	c #7D702F",
"J+	c #896553",
"K+	c #937D7C",
"L+	c #9197B1",
"M+	c #8D8896",
"N+	c #997156",
"O+	c #669AD1",
"P+	c #849BC1",
"              . + @ # $ % . & & * & * % = = %                   ",
"    -       % ; > , , ' ) ! ~ { ] ^ / ( { _ : < [     [ [     [ ",
"          } % | 1 2 3 4 5 6 7 8 9 3 0 a b c d e f -   g h       ",
"            % i j k l 7 7 7 m n 7 8 o 7 p q 2 , r %           [ ",
"        %   - s t k u m m m m m p p 7 n m v w w x *         [ g ",
"    }     } * y e z A m m m m m p p m m B C D D D E   -         ",
"  % = = % % . F G 4 m m m m m m p m m p H I J K L M N - -       ",
". / @ O < * P | Q R m m m m m m m m p m S T U U V W X Y & & [   ",
"; > , 2 Z ` !  ...+.m m m m m m m m m m @.#.$.U U %.W &.*.=.< % ",
"-., 2 3 R ;.6 7 n n m m m m m m m m m m m C >.U U U J ,.'.2 e ).",
"!.~.k A n 7 7 m p p p m m m m m Y &.&.m {.].^./.(._.:.<.'.2 [.}.",
"s |.1.A n m m m p p p 2.3.3.3.3.4.5.6.2.7.8.9.0.a.b.c.d.e.1 f.).",
"g.h.2 d v 7 m m i.d.E j.j.k.l.l.m.n.o.p.q.r.s.Y t.t.u.v.w.1 x.= ",
"P y.z.A.A n m m Y &.B.o.o.C.D.D.D.E.F.o.G.H.S p m m m 7 o 2 I.P ",
". J.d 4 A n m &.K.L.M.M.M.M.D.D.D.E.F.N.N.G.S p m m p n O.w.O P.",
").Q.R.S.n m T.U.n.E.M.M.M.M.D.D.V.W.X.N.N.Y.S p p m n p Z.1.+ P.",
"`.G w.B m x B.C. +.+++D.M.M.M. +@+F.F.N.#+$+%+p m m m m Z.&+!.* ",
"*+=+A.l p -+;+C. +>+,+D.M.M.M.'+X.F.F.N.)+!+p m p m p n v , + * ",
". ~+1 A {+]+o.M.D.D.D.D.M.^+X.'+X./+(+N.)+!+p p p p p _+z.2 x.& ",
":+@ d A {+]+o.D.D.D.D.D.V.o.X.F.F.U.N.N.)+!+m p m m p _+k 1 ' <+",
":+: Q Z.{+[+}+n.|+1+1+V.@+F.F.o.}+2+N.3+4+5+p p p m p n ..2 , 6+",
"P @ 2 o 7+8+9+0+W.a+a+X.X.F.F.U.b+N.N.,.w m 7 8 S.Z.u S.v z.2 : ",
"c+d+2 1 Q '.,.N.e+F.X.X.X.X.o.N.N.N.f+,.w 7 ;.A.g+z.d A.A.1 h+i+",
". -.^ x.j+*.,.N.(+(+(+(+(+(+(+N.N.k+,.m m +.A.l+J.|.m+n+o+@ }.:+",
"% . c+c+. . p+q+3+Y.N.N.N.N.f+3+3+r+s+m n l d > -.. . t+u+t+* - ",
"  - * * % % * v+v+w+x+x+x+Y.x+y+y+z+m p 7 o 2 , -.. } } % - - * ",
"            - A+' *.B+C+C+B+D+m m m p p 7 R.z.f.< * %     } - } ",
"            - s E+z.l n 7 p p m p m 7 m m 9 2 , # *   } }   } - ",
"              t+F+2 g+..q 6 B b A v.v A +.Z.z.2 G+*             ",
"            % H+o+2 1 z.0 I+o k k o 1.z.k z.1 J+i+%       }     ",
"            } . -.K+=.j+L+M+N+[.> O | F M+h.K+i P }             ",
"              - . O+P.. . h P+P+}.A+% . P O+P & - }   }     } } "};
