/* XPM */
static char *water_tile32[] = {
/* columns rows colors chars-per-pixel */
"32 32 11 1",
"  c #3E92D1",
". c #3F93D1",
"X c #4093D1",
"o c #4094D1",
"O c #4194D1",
"+ c #4195D1",
"@ c #4296D1",
"# c #4396D1",
"$ c #4397D1",
"% c #4497D1",
"& c #4498D1",
/* pixels */
"   .++ +&++&&+++++&&+&&&++++    ",
"  .$&&$&&&&+++&&++&&&++++&&+    ",
" .$&&&&$&&+ +&&&&&+&++++&&&&+   ",
"++&&&&&+++++&&&&&++++++&&&&&+  +",
"&$&&&&++++&&&&&&&++++&+&&&&+++++",
"+ ++$&&&&++++++%&&&&+++X&&&&&&++",
"++++++&&&&+++.+++&&&&X+++ +&&&&+",
"+$&++&&&&+++&&++&&&&&++&++&&&&&+",
"&&&&$$&&$+$&&&&$&&&++&&&&&+&&&+&",
"&&&&+.$$++&&&&&++&++&&&&&&++&++&",
"&&&$++.+++$&&&+++ +++&&&&+++++++",
"$$&++++&&&+$&$++++&&++&++++++&&+",
"..+&&&&&&&+..+&&&&&&&++++&&&&&&&",
" +&&&&&+&++++&&&&&++++ %&&&&++&&",
"$+&&&&$+.+++&&&&&&+++&&&&&&&++ +",
"&+&&&&++++&&+&&&+++++&&+&&&&+++&",
"+++++&&&&+++++++&&&&++++++&&&&++",
"+++++&&&&&++++++&&&&++++++&&&&&+",
"+&&&+&&&&&+&&&&+&&&&+&&&&++&&&&+",
"&&&&&+&&+++&&&&+&&&++&&&&&+&&&+&",
"&&&&++++++&&&&&++++++&&&&++++++&",
"&&&+ + +++&&&&+  ++&+&&&&+ +++++",
"+++&&&+&&&++++&+++&&&++++&++&&&&",
"+++&&&&&&&+++&&&&&&&&+++&&&&&&&&",
"++&&&&&++++++&&&&&+++++&&&&&++++",
"&+&&&&++X+&+&&&&&+ ++&+&&&&&+++&",
"+++&&&+&++&+++&&&+&+&&+++&&&+%++",
"+ +++&&&&%++ +++&&&&++ ++++&&&&+",
"     +&&&&+&&&++&&&&&+&++++&&&&+",
"     &&&&++&&&+&&&&&++&&&&&&&&++",
"     +&&++&&&&&++&&+&&&&&&++&&+ ",
"      ++ +&&&&+++++ &&&&&+ ++   "
};
