/* XPM */
static char *path_tile32[] = {
/* columns rows colors chars-per-pixel */
"32 32 168 2",
"   c #327504",
".  c #337803",
"X  c #397606",
"o  c #3B7409",
"O  c #426F0E",
"+  c #476D12",
"@  c #42740E",
"#  c #49730F",
"$  c #467111",
"%  c #4A7214",
"&  c #506E17",
"*  c #556F1A",
"=  c #5A6D1C",
"-  c #517217",
";  c #557119",
":  c #5B711C",
">  c #576F23",
",  c #5D6F21",
"<  c #61711E",
"1  c #636C21",
"2  c #616D2E",
"3  c #6E6327",
"4  c #6B6C26",
"5  c #6A6D2A",
"6  c #646130",
"7  c #6C6330",
"8  c #696238",
"9  c #697124",
"0  c #6F7328",
"q  c #75642B",
"w  c #706D27",
"e  c #726C29",
"r  c #7A632D",
"t  c #7C692D",
"y  c #7F6730",
"u  c #796930",
"i  c #74702A",
"p  c #7D702F",
"a  c #6F7545",
"s  c #6C785E",
"d  c #7E635E",
"f  c #737355",
"g  c #7C6362",
"h  c #757263",
"j  c #7C7572",
"k  c #7D717C",
"l  c #63769B",
"z  c #6A7695",
"x  c #757780",
"c  c #72748B",
"v  c #7E7685",
"b  c #7D798D",
"n  c #707A91",
"m  c #7C7C93",
"M  c #607AA4",
"N  c #3E8DCE",
"B  c #3E8FD0",
"V  c #3E91D0",
"C  c #5B85BB",
"Z  c #6A83AD",
"A  c #6385B5",
"S  c #6788B6",
"D  c #6489B9",
"F  c #7383A7",
"G  c #7A86A4",
"H  c #7F88A6",
"J  c #7F8CAC",
"K  c #738AB4",
"L  c #738FB8",
"P  c #7B8DB1",
"I  c #7790B7",
"U  c #7991B6",
"Y  c #4286CA",
"T  c #438BCC",
"R  c #4B87C6",
"E  c #4B88C6",
"W  c #4B8BCB",
"Q  c #4393D1",
"!  c #4D96D2",
"~  c #5087C3",
"^  c #5088C3",
"/  c #548ECB",
"(  c #598BC4",
")  c #598DC9",
"_  c #5591CD",
"`  c #5C92CC",
"'  c #5F98CF",
"]  c #5094D1",
"[  c #5D96D0",
"{  c #618CC0",
"}  c #6590C2",
"|  c #6493CA",
" . c #6D94C2",
".. c #6997CE",
"X. c #689ACF",
"o. c #669AD1",
"O. c #6D9BD0",
"+. c #7497C4",
"@. c #759DCE",
"#. c #709FD1",
"$. c #855E31",
"%. c #8A5F36",
"&. c #856333",
"*. c #816B31",
"=. c #8B6534",
"-. c #8C623A",
";. c #8A6B34",
":. c #807036",
">. c #916737",
",. c #93653A",
"<. c #916B37",
"1. c #936A3A",
"2. c #98673B",
"3. c #9B6A3C",
"4. c #825F51",
"5. c #89634F",
"6. c #836F58",
"7. c #896553",
"8. c #8A6C57",
"9. c #8B695C",
"0. c #946745",
"q. c #936941",
"w. c #94694C",
"e. c #9B6B43",
"r. c #9B6D4B",
"t. c #906750",
"y. c #966D53",
"u. c #946E5A",
"i. c #9E704E",
"p. c #94715E",
"a. c #997156",
"s. c #99715D",
"d. c #876B67",
"f. c #8C6D63",
"g. c #896F6B",
"h. c #816E73",
"j. c #847163",
"k. c #8D726E",
"l. c #837379",
"z. c #8D7573",
"x. c #8A7579",
"c. c #91746D",
"v. c #9A7564",
"b. c #9A7768",
"n. c #9C7A6C",
"m. c #927571",
"M. c #957972",
"N. c #937D7C",
"B. c #9A7D74",
"V. c #807684",
"C. c #827885",
"Z. c #827D90",
"A. c #9C817B",
"S. c #87818C",
"D. c #858296",
"F. c #8D8591",
"G. c #8D8896",
"H. c #8D8B9C",
"J. c #938287",
"K. c #8389A2",
"L. c #828FAE",
"P. c #818FB0",
"I. c #8C93AD",
"U. c #8097B9",
"Y. c #879CBF",
"T. c #9392A7",
"R. c #9197B1",
"E. c #849BC1",
/* pixels */
"V V V V V V V W b c.x.A T W R R Y R Y T E E T V V V V V V V V V ",
"V V N V V V T F r.e.e.f.M j s h c m.m n h j.k Z Q V V Q Q V V Q ",
"V V V V V B T K.2.3.;.q 8 , o ; 5 ;.q.2 # < 1.s.S N V ! _ V V V ",
"V V V V V V T L 4.&.: o o o   X o ; t o . 9 3.e.J T V V V V V Q ",
"V V V V T V N / F.&.&           . . o X   4 3.w.M Y V V V V Q ! ",
"V V B V V B Y K s.<.=           . .     @ y 2.9.( N V N V V V V ",
"V T E E T T W I.0.q             .     . % &.3.b...T V N N V V V ",
"W m c.z.Z Y ` K.%.3                 .   X 5 1.9.{ Y T C R R Q V ",
"F r.e.3.9.l j a e +                     . $ 3 7 s.m k s f l.Z T ",
"P e.3.;.3 6 , o X X                           - ;.-.> @ 4 3.s.D ",
"+.d &.= X o o   . . .                     . . . ; 0 o X 0 3.i.U ",
"/ H.-.= X       . . . .             .     . . . X o . o 0 2.t.D ",
"..B.3.1.4 o     . .                       . .       X % *.2.k.E ",
"` V.,.=.= X     . .                     . . . .       o t 3.M.` ",
"W D.1.q = X     . . .                   . . . .     . X - *.z.' ",
"D u.r $ X       . .                           . .   X . 1 -.b ' ",
"U.0.*.@       .                           . . .         1 8.+.Y ",
" .g =.: .     .                             .   .   . X 4 e.b Y ",
"W Z.2.=       .                             . . . . . * ,.3.k.R ",
") c.1.=                                       .     . * &.2.f.C ",
") k %.1 . X X .     .                       . . .   . X e 3.e.C.",
"` c.3.t 4 4 ; X o - o                       o ; $ 1 & $ 4 ,.3.k ",
"X.A.3.2.%.1.*.4 &.r :                     o 6 =.u ,.1.=.=.2.5.z ",
"W P m.k.G T.S.w.3.u - .                   + =.w.D.H.T.J.n.c.U ) ",
"T W X.X.W W _ L.y.y @ . .               X : 1.r.P W W | O.| Y N ",
"V N Y Y T T Y @.v.0 X .               . o t 3.e.P W B B T N N Y ",
"V V V V V V N } f.&.$ .             . . o r ,.t.Z Y T V V B N B ",
"V V V V V V N / v ,.: X o . .   .   o     5 3.e.x.Y V B B V B N ",
"V V V V V V V | b.3.u e 9 , @ # = % 4 = + 1 ,.3.h.Y V V V V V V ",
"V V V V V V T @.n.3.2.,.q.p t &.&.t -.,.&.,.2.7.z T V V V B V V ",
"V V V V V V B W P N.l.G R.G.a.i.r.z.K.I.G.B.N.L ` B V V V V V V ",
"V V V V V V V N W o.' W W _ E.E.U } T W ` o.` R N B V B V V B B "
};
