/* XPM */
static char *player32[] = {
/* columns rows colors chars-per-pixel */
"32 32 256 2",
"   c #381F14",
".  c #3D2318",
"X  c #3C2818",
"o  c #3A3C18",
"O  c #3E2324",
"+  c #3D3B25",
"@  c #325D1D",
"#  c #3E4128",
"$  c #3C5C28",
"%  c #366D15",
"&  c #337504",
"*  c #347509",
"=  c #337803",
"-  c #36780E",
";  c #387606",
":  c #3B7409",
">  c #367313",
",  c #397314",
"<  c #3B731B",
"1  c #39741A",
"2  c #3C6A29",
"3  c #3E6230",
"4  c #3C7420",
"5  c #3E7826",
"6  c #3F4D69",
"7  c #432519",
"8  c #44281C",
"9  c #4C2A1D",
"0  c #402317",
"q  c #512D1E",
"w  c #4B2C21",
"e  c #423421",
"r  c #473028",
"t  c #4C3222",
"y  c #4F3928",
"u  c #453B28",
"i  c #532F20",
"p  c #532D2E",
"a  c #543022",
"s  c #593223",
"d  c #53392B",
"f  c #48452B",
"g  c #434C30",
"h  c #40522F",
"j  c #4B5432",
"k  c #5B5337",
"l  c #574A2B",
"z  c #426F0E",
"x  c #446A17",
"c  c #41750E",
"v  c #49730F",
"b  c #467212",
"n  c #4A7213",
"m  c #497318",
"M  c #506E17",
"N  c #5A6D1C",
"B  c #556F1A",
"V  c #517217",
"C  c #557119",
"Z  c #5B711C",
"A  c #426E21",
"S  c #486722",
"D  c #4D6129",
"F  c #426A2E",
"G  c #416232",
"H  c #416A32",
"J  c #427323",
"K  c #44732A",
"L  c #447031",
"P  c #4B7337",
"I  c #5C7128",
"U  c #58683C",
"Y  c #644A3B",
"T  c #604A37",
"R  c #62533C",
"E  c #61711E",
"W  c #636C21",
"Q  c #6D6D26",
"!  c #6B6C2C",
"~  c #616D2E",
"^  c #666A3D",
"/  c #676437",
"(  c #697124",
")  c #6F7328",
"_  c #64723B",
"`  c #726C29",
"'  c #7C692D",
"]  c #76652B",
"[  c #7F6730",
"{  c #796930",
"}  c #716631",
"|  c #78702C",
" . c #564948",
".. c #544647",
"X. c #5D5660",
"o. c #567843",
"O. c #5F6272",
"+. c #775943",
"@. c #666D46",
"#. c #6C785E",
"$. c #7A674A",
"%. c #7E635E",
"&. c #737356",
"*. c #6D6A66",
"=. c #7C6362",
"-. c #757263",
";. c #7C7674",
":. c #7D717C",
">. c #7E7A7A",
",. c #3E6E9C",
"<. c #566682",
"1. c #5D7598",
"2. c #4A78A9",
"3. c #6A7695",
"4. c #7D798D",
"5. c #787588",
"6. c #7D7D94",
"7. c #707A91",
"8. c #607AA4",
"9. c #3F8DCE",
"0. c #3E8FD0",
"q. c #3E91D0",
"w. c #4E80B8",
"e. c #5B85BB",
"r. c #6B83AD",
"t. c #6385B5",
"y. c #6788B6",
"u. c #6489B9",
"i. c #7287AF",
"p. c #7F88A6",
"a. c #7987A7",
"s. c #7B8DB1",
"d. c #738FB8",
"f. c #7790B7",
"g. c #7991B6",
"h. c #4286CA",
"j. c #438BCC",
"k. c #4B87C6",
"l. c #4B88C6",
"z. c #4B8BCB",
"x. c #4488C2",
"c. c #4393D1",
"v. c #4D96D2",
"b. c #548ECB",
"n. c #5489C3",
"m. c #5B92CC",
"M. c #5F98CF",
"N. c #5591CD",
"B. c #5094D1",
"V. c #5D96D0",
"C. c #6493CA",
"Z. c #6997CE",
"A. c #689ACF",
"S. c #6A92C2",
"D. c #699BD0",
"F. c #759DCE",
"G. c #7497C4",
"H. c #709FD1",
"J. c #875E33",
"K. c #856333",
"L. c #816B31",
"P. c #8B6534",
"I. c #8C6239",
"U. c #8A6B34",
"Y. c #807036",
"T. c #916737",
"R. c #93653A",
"E. c #936A3A",
"W. c #98673B",
"Q. c #9B6A3C",
"!. c #916B37",
"~. c #825F51",
"^. c #8B6B4F",
"/. c #8A6448",
"(. c #866C53",
"). c #856B5B",
"_. c #8C6D55",
"`. c #896757",
"'. c #8A7154",
"]. c #936941",
"[. c #94694C",
"{. c #9B6B43",
"}. c #9B6D4B",
"|. c #946745",
" X c #906750",
".X c #956D56",
"XX c #9E704E",
"oX c #947254",
"OX c #98725C",
"+X c #98785B",
"@X c #8C6D63",
"#X c #886D69",
"$X c #816E73",
"%X c #8D726E",
"&X c #847163",
"*X c #8E7573",
"=X c #8A7579",
"-X c #837379",
";X c #937E69",
":X c #9A7E61",
">X c #97766A",
",X c #927571",
"<X c #957972",
"1X c #977D78",
"2X c #A07D5D",
"3X c #A17F60",
"4X c #817784",
"5X c #827D90",
"6X c #968162",
"7X c #9B8663",
"8X c #9C817B",
"9X c #A98866",
"0X c #AB8C6B",
"qX c #A58666",
"wX c #AB906F",
"eX c #AD9270",
"rX c #B0916E",
"tX c #B39572",
"yX c #B89B77",
"uX c #BA9C78",
"iX c #B89673",
"pX c #BDA07C",
"aX c #CD827C",
"sX c #C79C7F",
"dX c #C2A37E",
"fX c #87818C",
"gX c #858296",
"hX c #8D8896",
"jX c #8D8896",
"kX c #938686",
"lX c #9D9D9D",
"zX c #8488A2",
"xX c #828FAE",
"cX c #818FB0",
"vX c #8E95AF",
"bX c #8097B9",
"nX c #879CBF",
"mX c #9392A7",
"MX c #9197B1",
"NX c #A69996",
"BX c #B29E8A",
"VX c #BAA391",
"CX c #BCADA1",
"ZX c #BEB2AA",
"AX c #B3B2B1",
"SX c #849BC1",
"DX c #D78A84",
"FX c #C2A580",
"GX c #C5A983",
"HX c #CBAD86",
"JX c #CDB088",
"KX c #D0A687",
"LX c #D1B48B",
"PX c #C3AFAC",
"IX c #CCB7A7",
"UX c #DCD8D5",
/* pixels */
"q.q.q.q.q.q.q.z.5X%X=Xt.j.l.l.l.h.l.h.z.l.l.x.0.q.q.q.q.q.q.q.q.",
"q.q.9.q.q.q.9.a.}.Q.Q.#X8.;.#.-.5.*X6.7.-.&X:.y.c.q.q.c.c.q.q.0.",
"q.q.q.q.q.9.h.p.W.Q.P.] / W = C ! U.].~ n E W.OXy.0.q.v.v.q.q.q.",
"q.q.q.q.q.q.z.d.~.K.B : z : & = ; C ] : = ( Q.{.p.z.q.q.q.q.q.c.",
"0.0.q.0.9.q.9.b.jXK.M & & & & & = = : * * ( W.[.r.x.9.9.q.q.c.v.",
"q.0.0.0.q.9.h.i.OX!.N & & & & & = = & & c L.W.).e.9.9.9.q.q.c.c.",
"q.c.k.k.0.,.2. .Y ` * & & & & & & & & & n U.Q.9 <.2.9.9.0.0.q.q.",
"z.6.,X=X8.X.r O.T / > & & & & & & & & & ; ! /.8 1.9 2.e.k.l.0.q.",
"r.XX{.Q.`.....i d i $ & & % * 3 < 4 % & * j t i a X. .&.(.-Xr.c.",
"s.{.Q.U.} e t s t % * & H . u i a f u P = * F i s e f b ( E.OXu.",
"G.=.J.N ; : , + y 1 = < e . 7 9 8 7 0 o 5 & L i f ! : * ) Q.}.g.",
"N.hXI.N : & & G a g $ $.^.  lXr  .AX7 qXj G u a L : & : ` W.^.t.",
"Z.1XQ.E.` : & H w a s _.LXqXUX>.AXUXpXJX+.s s . & = & n L.W.%Xl.",
"m.4XR.K.N & & & 3 + i uXpX;XHX*.*.LX(.HXuXw f 5 & & & c ' Q.<Xm.",
"l.gXE.] N ; & & = = $ FXtXVX>XkXNX;XVXyX0X$ * = & & = * V Y.*XM.",
"u..X[ b & * & & & & @ :XyXFX>.O p :.KXuX+.< & & = & = ; W I.4.V.",
"bX|.L.c & & & = = = x R GXIXPXaXaXNXIXLXj U = = = = = & W _.G.h.",
"S.=.P.N & & & = < 4 7X$.wXPXBXdXGXBXCX:X_._ = = = = & * Q {.4.h.",
"z.fXQ.N & & & = @.x pXoXk yXrX9X0XeXGXd 7XrXo.x = = & N T.Q.%Xk.",
"b.>XT.N & & & & * 1 tXiX^.oXrXdXdXpXoX_.iXeX1 = & & & B P.W.@Xe.",
"b.:.J.W = ; ; & = = > ^ 7XuXuXsXHXHXyX+X@.> = = & & * : ` Q.Q.4X",
"m.%XQ.' Q Q C ; b V l J $.rXdXdXuX9X^.< = = k I n W V n W W.Q.-X",
"A.8XQ.W.J.T.L.` L.] I > < .X9XrX0X+X/ > & m ^ P.' P.E.K.P.W.`.3.",
"z.s.>X%Xp.mXfX[.W.[ V - - ^ 9XGXJX6X* j J C P.[.gXzXmXkX>X,Xs.b.",
"j.z.D.Z.z.b.b.xX.XL.c x j '.eX2X'.o.- & * Z W.}.xXb.z.V.H.C.j.h.",
"q.9.9.h.9.9.h.F.:X` : & = K +X'.L m 1 & : ' Q.|.s.h.9.9.j.h.h.0.",
"q.q.q.q.q.9.h.C.@XK.b = = = = & & & & & : [ W.[.r.h.9.0.0.0.0.0.",
"q.q.q.q.q.9.9.b.5.R.Z ; c = = = & = * & ; W Q.Q.=Xk.0.0.0.q.0.9.",
"q.q.q.q.q.q.q.C.>XQ.| ` W Z : n N n W N m W R.W.$Xh.q.q.q.q.q.q.",
"q.q.q.q.q.q.9.F.>X{.W.R.{.Y.' P.P.' R.].K.I.W.`.3.c.q.q.q.0.q.q.",
"q.q.q.q.q.q.9.z.s.1X-Xa.MXhX.XXX}.*Xp.vXjX8X1Xs.m.9.q.q.q.0.q.q.",
"q.q.q.q.q.q.q.9.z.A.M.l.z.N.SXSXg.S.j.k.b.D.V.h.9.9.0.q.q.q.0.q."
};
